<mxfile host="app.diagrams.net" agent="Mozilla/5.0 (Windows NT 10.0; Win64; x64) AppleWebKit/537.36 (KHTML, like Gecko) Chrome/132.0.0.0 Safari/537.36 OPR/117.0.0.0" version="26.1.1">
  <diagram name="Page-1" id="2YBvvXClWsGukQMizWep">
    <mxGraphModel dx="1380" dy="747" grid="1" gridSize="10" guides="1" tooltips="1" connect="1" arrows="1" fold="1" page="1" pageScale="1" pageWidth="1100" pageHeight="1700" math="0" shadow="0">
      <root>
        <mxCell id="0" />
        <mxCell id="1" parent="0" />
        <mxCell id="bTpTMNe7fyv-q265F9eC-1" value="Actor" style="shape=umlActor;verticalLabelPosition=bottom;verticalAlign=top;html=1;outlineConnect=0;" parent="1" vertex="1">
          <mxGeometry x="100" y="120" width="30" height="60" as="geometry" />
        </mxCell>
        <mxCell id="bTpTMNe7fyv-q265F9eC-2" value="Login Page" style="rounded=0;whiteSpace=wrap;html=1;" parent="1" vertex="1">
          <mxGeometry x="190" y="120" width="120" height="60" as="geometry" />
        </mxCell>
        <mxCell id="bTpTMNe7fyv-q265F9eC-3" value="Texas Gears Server" style="rounded=0;whiteSpace=wrap;html=1;" parent="1" vertex="1">
          <mxGeometry x="590" y="120" width="120" height="60" as="geometry" />
        </mxCell>
        <mxCell id="bTpTMNe7fyv-q265F9eC-4" value="Main Page" style="rounded=0;whiteSpace=wrap;html=1;" parent="1" vertex="1">
          <mxGeometry x="368" y="120" width="120" height="60" as="geometry" />
        </mxCell>
        <mxCell id="bTpTMNe7fyv-q265F9eC-7" value="" style="endArrow=none;dashed=1;html=1;dashPattern=1 3;strokeWidth=2;rounded=0;entryX=0.5;entryY=1;entryDx=0;entryDy=0;" parent="1" target="bTpTMNe7fyv-q265F9eC-2" edge="1">
          <mxGeometry width="50" height="50" relative="1" as="geometry">
            <mxPoint x="240" y="2320" as="sourcePoint" />
            <mxPoint x="249.99999999999997" y="230" as="targetPoint" />
          </mxGeometry>
        </mxCell>
        <mxCell id="bTpTMNe7fyv-q265F9eC-8" value="" style="endArrow=none;dashed=1;html=1;dashPattern=1 3;strokeWidth=2;rounded=0;entryX=0.5;entryY=1;entryDx=0;entryDy=0;" parent="1" target="bTpTMNe7fyv-q265F9eC-4" edge="1">
          <mxGeometry width="50" height="50" relative="1" as="geometry">
            <mxPoint x="440" y="2320" as="sourcePoint" />
            <mxPoint x="427.97058823529414" y="200" as="targetPoint" />
          </mxGeometry>
        </mxCell>
        <mxCell id="bTpTMNe7fyv-q265F9eC-9" value="" style="endArrow=none;dashed=1;html=1;dashPattern=1 3;strokeWidth=2;rounded=0;entryX=0.5;entryY=1;entryDx=0;entryDy=0;" parent="1" target="bTpTMNe7fyv-q265F9eC-3" edge="1">
          <mxGeometry width="50" height="50" relative="1" as="geometry">
            <mxPoint x="650" y="2320" as="sourcePoint" />
            <mxPoint x="660" y="200" as="targetPoint" />
          </mxGeometry>
        </mxCell>
        <mxCell id="bTpTMNe7fyv-q265F9eC-10" value="" style="endArrow=none;dashed=1;html=1;dashPattern=1 3;strokeWidth=2;rounded=0;entryX=0.5;entryY=1;entryDx=0;entryDy=0;" parent="1" edge="1">
          <mxGeometry width="50" height="50" relative="1" as="geometry">
            <mxPoint x="120" y="2320" as="sourcePoint" />
            <mxPoint x="111.5" y="198" as="targetPoint" />
          </mxGeometry>
        </mxCell>
        <mxCell id="bTpTMNe7fyv-q265F9eC-12" value="Input login Info" style="text;html=1;align=center;verticalAlign=middle;resizable=0;points=[];autosize=1;strokeColor=none;fillColor=none;" parent="1" vertex="1">
          <mxGeometry x="130" y="236" width="100" height="30" as="geometry" />
        </mxCell>
        <mxCell id="bTpTMNe7fyv-q265F9eC-13" value="" style="endArrow=classic;html=1;rounded=0;" parent="1" edge="1">
          <mxGeometry width="50" height="50" relative="1" as="geometry">
            <mxPoint x="250" y="277" as="sourcePoint" />
            <mxPoint x="650" y="277" as="targetPoint" />
          </mxGeometry>
        </mxCell>
        <mxCell id="bTpTMNe7fyv-q265F9eC-14" value="Verify login Info" style="text;html=1;align=center;verticalAlign=middle;resizable=0;points=[];autosize=1;strokeColor=none;fillColor=none;" parent="1" vertex="1">
          <mxGeometry x="480" y="254" width="110" height="30" as="geometry" />
        </mxCell>
        <mxCell id="bTpTMNe7fyv-q265F9eC-40" value="" style="endArrow=classic;html=1;rounded=0;" parent="1" edge="1">
          <mxGeometry width="50" height="50" relative="1" as="geometry">
            <mxPoint x="110" y="222" as="sourcePoint" />
            <mxPoint x="250" y="222" as="targetPoint" />
          </mxGeometry>
        </mxCell>
        <mxCell id="bTpTMNe7fyv-q265F9eC-41" value="Choose admin/user log in" style="text;html=1;align=center;verticalAlign=middle;resizable=0;points=[];autosize=1;strokeColor=none;fillColor=none;" parent="1" vertex="1">
          <mxGeometry x="100" y="200" width="160" height="30" as="geometry" />
        </mxCell>
        <mxCell id="bTpTMNe7fyv-q265F9eC-42" value="" style="endArrow=block;dashed=1;endFill=0;endSize=12;html=1;rounded=0;" parent="1" edge="1">
          <mxGeometry width="160" relative="1" as="geometry">
            <mxPoint x="650" y="242" as="sourcePoint" />
            <mxPoint x="250" y="242" as="targetPoint" />
          </mxGeometry>
        </mxCell>
        <mxCell id="bTpTMNe7fyv-q265F9eC-43" value="Return correct log-in page" style="text;html=1;align=center;verticalAlign=middle;resizable=0;points=[];autosize=1;strokeColor=none;fillColor=none;" parent="1" vertex="1">
          <mxGeometry x="455" y="218" width="160" height="30" as="geometry" />
        </mxCell>
        <mxCell id="bTpTMNe7fyv-q265F9eC-60" value="" style="group" parent="1" vertex="1" connectable="0">
          <mxGeometry x="45" y="294" width="615" height="206" as="geometry" />
        </mxCell>
        <mxCell id="bTpTMNe7fyv-q265F9eC-57" value="" style="group" parent="bTpTMNe7fyv-q265F9eC-60" vertex="1" connectable="0">
          <mxGeometry width="615" height="206" as="geometry" />
        </mxCell>
        <mxCell id="bTpTMNe7fyv-q265F9eC-46" value="Alternative" style="shape=umlFrame;whiteSpace=wrap;html=1;pointerEvents=0;" parent="bTpTMNe7fyv-q265F9eC-57" vertex="1">
          <mxGeometry x="7.4141849563512086" y="3.121212121212121" width="594.617633499367" height="202.87878787878788" as="geometry" />
        </mxCell>
        <mxCell id="bTpTMNe7fyv-q265F9eC-47" value="[if info is&lt;br&gt;valid&lt;span style=&quot;background-color: transparent; color: light-dark(rgb(0, 0, 0), rgb(255, 255, 255));&quot;&gt;]&lt;/span&gt;" style="text;html=1;align=center;verticalAlign=middle;resizable=0;points=[];autosize=1;strokeColor=none;fillColor=none;" parent="bTpTMNe7fyv-q265F9eC-57" vertex="1">
          <mxGeometry y="48.37878787878788" width="70" height="40" as="geometry" />
        </mxCell>
        <mxCell id="bTpTMNe7fyv-q265F9eC-48" value="" style="endArrow=block;dashed=1;endFill=0;endSize=12;html=1;rounded=0;entryX=0.042;entryY=0.904;entryDx=0;entryDy=0;entryPerimeter=0;" parent="bTpTMNe7fyv-q265F9eC-57" edge="1" target="bTpTMNe7fyv-q265F9eC-49">
          <mxGeometry width="160" relative="1" as="geometry">
            <mxPoint x="604.9974924382586" y="26.129793510324482" as="sourcePoint" />
            <mxPoint x="384.9984042788919" y="23.699115044247787" as="targetPoint" />
          </mxGeometry>
        </mxCell>
        <mxCell id="bTpTMNe7fyv-q265F9eC-49" value="Information Corresponds &amp;amp; Prompts 2FA" style="text;html=1;align=center;verticalAlign=middle;resizable=0;points=[];autosize=1;strokeColor=none;fillColor=none;" parent="bTpTMNe7fyv-q265F9eC-57" vertex="1">
          <mxGeometry x="375.00099473523625" y="1.5606060606060606" width="240" height="30" as="geometry" />
        </mxCell>
        <mxCell id="bTpTMNe7fyv-q265F9eC-50" value="" style="endArrow=classic;html=1;rounded=0;entryX=1.012;entryY=0.665;entryDx=0;entryDy=0;entryPerimeter=0;" parent="bTpTMNe7fyv-q265F9eC-57" edge="1">
          <mxGeometry width="50" height="50" relative="1" as="geometry">
            <mxPoint x="204.99915033031905" y="112.54317511397157" as="sourcePoint" />
            <mxPoint x="70.83970638731626" y="111.8194958433897" as="targetPoint" />
          </mxGeometry>
        </mxCell>
        <mxCell id="bTpTMNe7fyv-q265F9eC-51" value="User Logged In" style="text;html=1;align=center;verticalAlign=middle;resizable=0;points=[];autosize=1;strokeColor=none;fillColor=none;" parent="bTpTMNe7fyv-q265F9eC-57" vertex="1">
          <mxGeometry x="76.3099778320702" y="86.58850093858943" width="110" height="30" as="geometry" />
        </mxCell>
        <mxCell id="bTpTMNe7fyv-q265F9eC-52" value="[else]" style="text;html=1;align=center;verticalAlign=middle;resizable=0;points=[];autosize=1;strokeColor=none;fillColor=none;" parent="bTpTMNe7fyv-q265F9eC-57" vertex="1">
          <mxGeometry x="16.31120690397266" y="140.45454545454544" width="50" height="30" as="geometry" />
        </mxCell>
        <mxCell id="bTpTMNe7fyv-q265F9eC-53" value="" style="endArrow=block;dashed=1;endFill=0;endSize=12;html=1;rounded=0;" parent="bTpTMNe7fyv-q265F9eC-57" edge="1">
          <mxGeometry width="160" relative="1" as="geometry">
            <mxPoint x="602.0275047481072" y="145.8440225261464" as="sourcePoint" />
            <mxPoint x="204.99915033031905" y="145.84070796460176" as="targetPoint" />
          </mxGeometry>
        </mxCell>
        <mxCell id="bTpTMNe7fyv-q265F9eC-54" value="Invalid User Information" style="text;html=1;align=center;verticalAlign=middle;resizable=0;points=[];autosize=1;strokeColor=none;fillColor=none;" parent="bTpTMNe7fyv-q265F9eC-57" vertex="1">
          <mxGeometry x="429.99498248532683" y="123.56409224993295" width="150" height="30" as="geometry" />
        </mxCell>
        <mxCell id="bTpTMNe7fyv-q265F9eC-55" value="" style="endArrow=classic;html=1;rounded=0;entryX=1.054;entryY=0.9;entryDx=0;entryDy=0;entryPerimeter=0;" parent="bTpTMNe7fyv-q265F9eC-57" edge="1">
          <mxGeometry width="50" height="50" relative="1" as="geometry">
            <mxPoint x="204.99915033031905" y="182.5909090909091" as="sourcePoint" />
            <mxPoint x="64.01100920034456" y="182.5909090909091" as="targetPoint" />
          </mxGeometry>
        </mxCell>
        <mxCell id="bTpTMNe7fyv-q265F9eC-56" value="Re-input information" style="text;html=1;align=center;verticalAlign=middle;resizable=0;points=[];autosize=1;strokeColor=none;fillColor=none;" parent="bTpTMNe7fyv-q265F9eC-57" vertex="1">
          <mxGeometry x="70.00157260626689" y="160.4256074014481" width="130" height="30" as="geometry" />
        </mxCell>
        <mxCell id="oqbLm9f_M_ahlJ9TREGO-54" value="Prompt 2FA Code Input" style="text;html=1;align=center;verticalAlign=middle;resizable=0;points=[];autosize=1;strokeColor=none;fillColor=none;" vertex="1" parent="bTpTMNe7fyv-q265F9eC-57">
          <mxGeometry x="214.99940299944555" y="13.235044247787593" width="150" height="30" as="geometry" />
        </mxCell>
        <mxCell id="oqbLm9f_M_ahlJ9TREGO-55" value="" style="endArrow=block;dashed=1;endFill=0;endSize=12;html=1;rounded=0;" edge="1" parent="bTpTMNe7fyv-q265F9eC-57">
          <mxGeometry width="160" relative="1" as="geometry">
            <mxPoint x="384.9984042788919" y="36.02265486725662" as="sourcePoint" />
            <mxPoint x="204.99915033031905" y="36.02265486725662" as="targetPoint" />
          </mxGeometry>
        </mxCell>
        <mxCell id="oqbLm9f_M_ahlJ9TREGO-57" value="Input 2FA Code" style="text;html=1;align=center;verticalAlign=middle;resizable=0;points=[];autosize=1;strokeColor=none;fillColor=none;" vertex="1" parent="bTpTMNe7fyv-q265F9eC-57">
          <mxGeometry x="79.99966842158793" y="40.580176991150424" width="110" height="30" as="geometry" />
        </mxCell>
        <mxCell id="oqbLm9f_M_ahlJ9TREGO-58" value="" style="endArrow=block;dashed=1;endFill=0;endSize=12;html=1;rounded=0;" edge="1" parent="bTpTMNe7fyv-q265F9eC-57">
          <mxGeometry width="160" relative="1" as="geometry">
            <mxPoint x="69.99970986888943" y="60.15929203539823" as="sourcePoint" />
            <mxPoint x="209.9991296066683" y="60.15929203539823" as="targetPoint" />
          </mxGeometry>
        </mxCell>
        <mxCell id="oqbLm9f_M_ahlJ9TREGO-59" value="Verify Code" style="text;html=1;align=center;verticalAlign=middle;resizable=0;points=[];autosize=1;strokeColor=none;fillColor=none;" vertex="1" parent="bTpTMNe7fyv-q265F9eC-57">
          <mxGeometry x="249.99896381746225" y="52.94017699115042" width="90" height="30" as="geometry" />
        </mxCell>
        <mxCell id="oqbLm9f_M_ahlJ9TREGO-60" value="" style="endArrow=block;dashed=1;endFill=0;endSize=12;html=1;rounded=0;entryX=1.001;entryY=0.335;entryDx=0;entryDy=0;entryPerimeter=0;" edge="1" parent="bTpTMNe7fyv-q265F9eC-57">
          <mxGeometry width="160" relative="1" as="geometry">
            <mxPoint x="204.99915033031905" y="74.81628318584069" as="sourcePoint" />
            <mxPoint x="602.6264360892176" y="75.64312818449987" as="targetPoint" />
          </mxGeometry>
        </mxCell>
        <mxCell id="oqbLm9f_M_ahlJ9TREGO-61" value="" style="endArrow=block;dashed=1;endFill=0;endSize=12;html=1;rounded=0;" edge="1" parent="bTpTMNe7fyv-q265F9eC-57">
          <mxGeometry width="160" relative="1" as="geometry">
            <mxPoint x="604.9974924382586" y="96.18194690265484" as="sourcePoint" />
            <mxPoint x="204.99915033031905" y="96.18194690265484" as="targetPoint" />
          </mxGeometry>
        </mxCell>
        <mxCell id="oqbLm9f_M_ahlJ9TREGO-62" value="If Code Correct Log In" style="text;html=1;align=center;verticalAlign=middle;resizable=0;points=[];autosize=1;strokeColor=none;fillColor=none;" vertex="1" parent="bTpTMNe7fyv-q265F9eC-57">
          <mxGeometry x="419.9982592133366" y="74.30584070796458" width="140" height="30" as="geometry" />
        </mxCell>
        <mxCell id="bTpTMNe7fyv-q265F9eC-17" value="" style="endArrow=none;dashed=1;html=1;rounded=0;exitX=0.002;exitY=0.5;exitDx=0;exitDy=0;exitPerimeter=0;entryX=1.005;entryY=0.5;entryDx=0;entryDy=0;entryPerimeter=0;" parent="bTpTMNe7fyv-q265F9eC-57" edge="1">
          <mxGeometry width="50" height="50" relative="1" as="geometry">
            <mxPoint x="5.626030603093341" y="123.56795923840171" as="sourcePoint" />
            <mxPoint x="602.0275170029582" y="123.56795923840171" as="targetPoint" />
          </mxGeometry>
        </mxCell>
        <mxCell id="bTpTMNe7fyv-q265F9eC-61" value="" style="endArrow=block;dashed=1;endFill=0;endSize=12;html=1;rounded=0;" parent="1" edge="1">
          <mxGeometry width="160" relative="1" as="geometry">
            <mxPoint x="110" y="260" as="sourcePoint" />
            <mxPoint x="250" y="260" as="targetPoint" />
          </mxGeometry>
        </mxCell>
        <mxCell id="bTpTMNe7fyv-q265F9eC-77" value="" style="endArrow=classic;html=1;rounded=0;" parent="1" edge="1">
          <mxGeometry width="50" height="50" relative="1" as="geometry">
            <mxPoint x="112" y="747" as="sourcePoint" />
            <mxPoint x="432" y="747" as="targetPoint" />
          </mxGeometry>
        </mxCell>
        <mxCell id="bTpTMNe7fyv-q265F9eC-78" value="Create Project" style="text;html=1;align=center;verticalAlign=middle;resizable=0;points=[];autosize=1;strokeColor=none;fillColor=none;" parent="1" vertex="1">
          <mxGeometry x="292" y="725" width="100" height="30" as="geometry" />
        </mxCell>
        <mxCell id="bTpTMNe7fyv-q265F9eC-79" value="" style="endArrow=block;dashed=1;endFill=0;endSize=12;html=1;rounded=0;" parent="1" edge="1">
          <mxGeometry width="160" relative="1" as="geometry">
            <mxPoint x="652" y="784" as="sourcePoint" />
            <mxPoint x="432" y="784" as="targetPoint" />
          </mxGeometry>
        </mxCell>
        <mxCell id="bTpTMNe7fyv-q265F9eC-80" value="Return project creation page" style="text;html=1;align=center;verticalAlign=middle;resizable=0;points=[];autosize=1;strokeColor=none;fillColor=none;" parent="1" vertex="1">
          <mxGeometry x="467" y="760" width="170" height="30" as="geometry" />
        </mxCell>
        <mxCell id="bTpTMNe7fyv-q265F9eC-82" value="Insert Project Information" style="text;html=1;align=center;verticalAlign=middle;resizable=0;points=[];autosize=1;strokeColor=none;fillColor=none;" parent="1" vertex="1">
          <mxGeometry x="262" y="783" width="160" height="30" as="geometry" />
        </mxCell>
        <mxCell id="bTpTMNe7fyv-q265F9eC-83" value="" style="endArrow=block;dashed=1;endFill=0;endSize=12;html=1;rounded=0;" parent="1" edge="1">
          <mxGeometry width="160" relative="1" as="geometry">
            <mxPoint x="112" y="1026" as="sourcePoint" />
            <mxPoint x="432" y="1026" as="targetPoint" />
          </mxGeometry>
        </mxCell>
        <mxCell id="bTpTMNe7fyv-q265F9eC-84" value="" style="group" parent="1" vertex="1" connectable="0">
          <mxGeometry x="47" y="741" width="605" height="132" as="geometry" />
        </mxCell>
        <mxCell id="bTpTMNe7fyv-q265F9eC-86" value="" style="group" parent="bTpTMNe7fyv-q265F9eC-84" vertex="1" connectable="0">
          <mxGeometry width="605" height="132" as="geometry" />
        </mxCell>
        <mxCell id="bTpTMNe7fyv-q265F9eC-87" value="Alternative" style="shape=umlFrame;whiteSpace=wrap;html=1;pointerEvents=0;" parent="bTpTMNe7fyv-q265F9eC-86" vertex="1">
          <mxGeometry x="7.41421568627451" y="97" width="594.6200980392157" height="130" as="geometry" />
        </mxCell>
        <mxCell id="bTpTMNe7fyv-q265F9eC-89" value="" style="endArrow=block;dashed=1;endFill=0;endSize=12;html=1;rounded=0;" parent="bTpTMNe7fyv-q265F9eC-86" edge="1">
          <mxGeometry width="160" relative="1" as="geometry">
            <mxPoint x="605" y="124" as="sourcePoint" />
            <mxPoint x="385" y="124" as="targetPoint" />
          </mxGeometry>
        </mxCell>
        <mxCell id="bTpTMNe7fyv-q265F9eC-93" value="[else]" style="text;html=1;align=center;verticalAlign=middle;resizable=0;points=[];autosize=1;strokeColor=none;fillColor=none;" parent="bTpTMNe7fyv-q265F9eC-86" vertex="1">
          <mxGeometry x="16.311274509803923" y="185" width="50" height="30" as="geometry" />
        </mxCell>
        <mxCell id="bTpTMNe7fyv-q265F9eC-94" value="" style="endArrow=block;dashed=1;endFill=0;endSize=12;html=1;rounded=0;" parent="bTpTMNe7fyv-q265F9eC-86" edge="1">
          <mxGeometry width="160" relative="1" as="geometry">
            <mxPoint x="605" y="191" as="sourcePoint" />
            <mxPoint x="385" y="191" as="targetPoint" />
          </mxGeometry>
        </mxCell>
        <mxCell id="bTpTMNe7fyv-q265F9eC-95" value="Invalid User Information" style="text;html=1;align=center;verticalAlign=middle;resizable=0;points=[];autosize=1;strokeColor=none;fillColor=none;" parent="bTpTMNe7fyv-q265F9eC-86" vertex="1">
          <mxGeometry x="414.99676470588236" y="169" width="150" height="30" as="geometry" />
        </mxCell>
        <mxCell id="bTpTMNe7fyv-q265F9eC-97" value="Re-input information" style="text;html=1;align=center;verticalAlign=middle;resizable=0;points=[];autosize=1;strokeColor=none;fillColor=none;" parent="bTpTMNe7fyv-q265F9eC-86" vertex="1">
          <mxGeometry x="225.00186274509804" y="185" width="130" height="30" as="geometry" />
        </mxCell>
        <mxCell id="bTpTMNe7fyv-q265F9eC-92" value="Project Created" style="text;html=1;align=center;verticalAlign=middle;resizable=0;points=[];autosize=1;strokeColor=none;fillColor=none;" parent="bTpTMNe7fyv-q265F9eC-86" vertex="1">
          <mxGeometry x="235.00029411764706" y="114" width="110" height="30" as="geometry" />
        </mxCell>
        <mxCell id="bTpTMNe7fyv-q265F9eC-85" value="" style="endArrow=none;dashed=1;html=1;rounded=0;exitX=0.002;exitY=0.5;exitDx=0;exitDy=0;exitPerimeter=0;entryX=1.005;entryY=0.5;entryDx=0;entryDy=0;entryPerimeter=0;" parent="bTpTMNe7fyv-q265F9eC-86" edge="1">
          <mxGeometry width="50" height="50" relative="1" as="geometry">
            <mxPoint x="4.29605392156866" y="168" as="sourcePoint" />
            <mxPoint x="600.7000122549018" y="168" as="targetPoint" />
          </mxGeometry>
        </mxCell>
        <mxCell id="bTpTMNe7fyv-q265F9eC-104" value="" style="endArrow=block;dashed=1;endFill=0;endSize=12;html=1;rounded=0;" parent="bTpTMNe7fyv-q265F9eC-86" edge="1">
          <mxGeometry width="160" relative="1" as="geometry">
            <mxPoint x="385" y="139" as="sourcePoint" />
            <mxPoint x="205" y="139" as="targetPoint" />
          </mxGeometry>
        </mxCell>
        <mxCell id="bTpTMNe7fyv-q265F9eC-105" value="" style="endArrow=block;dashed=1;endFill=0;endSize=12;html=1;rounded=0;" parent="bTpTMNe7fyv-q265F9eC-86" edge="1">
          <mxGeometry width="160" relative="1" as="geometry">
            <mxPoint x="380" y="215" as="sourcePoint" />
            <mxPoint x="200" y="215" as="targetPoint" />
          </mxGeometry>
        </mxCell>
        <mxCell id="bTpTMNe7fyv-q265F9eC-102" value="Information Valid" style="text;html=1;align=center;verticalAlign=middle;resizable=0;points=[];autosize=1;strokeColor=none;fillColor=none;" parent="bTpTMNe7fyv-q265F9eC-86" vertex="1">
          <mxGeometry x="435" y="100" width="110" height="30" as="geometry" />
        </mxCell>
        <mxCell id="bTpTMNe7fyv-q265F9eC-128" value="" style="endArrow=block;dashed=1;endFill=0;endSize=12;html=1;rounded=0;" parent="bTpTMNe7fyv-q265F9eC-86" edge="1">
          <mxGeometry width="160" relative="1" as="geometry">
            <mxPoint x="385" y="154" as="sourcePoint" />
            <mxPoint x="605" y="154" as="targetPoint" />
          </mxGeometry>
        </mxCell>
        <mxCell id="bTpTMNe7fyv-q265F9eC-129" value="Project inserted in Database" style="text;html=1;align=center;verticalAlign=middle;resizable=0;points=[];autosize=1;strokeColor=none;fillColor=none;" parent="bTpTMNe7fyv-q265F9eC-86" vertex="1">
          <mxGeometry x="405" y="130" width="170" height="30" as="geometry" />
        </mxCell>
        <mxCell id="bTpTMNe7fyv-q265F9eC-100" value="" style="endArrow=classic;html=1;rounded=0;" parent="1" edge="1">
          <mxGeometry width="50" height="50" relative="1" as="geometry">
            <mxPoint x="432" y="759" as="sourcePoint" />
            <mxPoint x="652" y="759" as="targetPoint" />
          </mxGeometry>
        </mxCell>
        <mxCell id="bTpTMNe7fyv-q265F9eC-101" value="Start Project Creation" style="text;html=1;align=center;verticalAlign=middle;resizable=0;points=[];autosize=1;strokeColor=none;fillColor=none;" parent="1" vertex="1">
          <mxGeometry x="482" y="737" width="140" height="30" as="geometry" />
        </mxCell>
        <mxCell id="bTpTMNe7fyv-q265F9eC-106" value="" style="endArrow=classic;html=1;rounded=0;" parent="1" edge="1">
          <mxGeometry width="50" height="50" relative="1" as="geometry">
            <mxPoint x="112" y="993" as="sourcePoint" />
            <mxPoint x="432" y="993" as="targetPoint" />
          </mxGeometry>
        </mxCell>
        <mxCell id="bTpTMNe7fyv-q265F9eC-107" value="Search Project" style="text;html=1;align=center;verticalAlign=middle;resizable=0;points=[];autosize=1;strokeColor=none;fillColor=none;" parent="1" vertex="1">
          <mxGeometry x="292" y="971" width="100" height="30" as="geometry" />
        </mxCell>
        <mxCell id="bTpTMNe7fyv-q265F9eC-108" value="" style="endArrow=block;dashed=1;endFill=0;endSize=12;html=1;rounded=0;" parent="1" edge="1">
          <mxGeometry width="160" relative="1" as="geometry">
            <mxPoint x="652" y="1012" as="sourcePoint" />
            <mxPoint x="432" y="1012" as="targetPoint" />
          </mxGeometry>
        </mxCell>
        <mxCell id="bTpTMNe7fyv-q265F9eC-109" value="Return project search page" style="text;html=1;align=center;verticalAlign=middle;resizable=0;points=[];autosize=1;strokeColor=none;fillColor=none;" parent="1" vertex="1">
          <mxGeometry x="467" y="988" width="170" height="30" as="geometry" />
        </mxCell>
        <mxCell id="bTpTMNe7fyv-q265F9eC-110" value="Insert Search Information" style="text;html=1;align=center;verticalAlign=middle;resizable=0;points=[];autosize=1;strokeColor=none;fillColor=none;" parent="1" vertex="1">
          <mxGeometry x="266" y="1002" width="160" height="30" as="geometry" />
        </mxCell>
        <mxCell id="bTpTMNe7fyv-q265F9eC-111" value="`" style="endArrow=block;dashed=1;endFill=0;endSize=12;html=1;rounded=0;" parent="1" edge="1">
          <mxGeometry width="160" relative="1" as="geometry">
            <mxPoint x="115" y="807" as="sourcePoint" />
            <mxPoint x="435" y="807" as="targetPoint" />
          </mxGeometry>
        </mxCell>
        <mxCell id="bTpTMNe7fyv-q265F9eC-112" value="" style="group" parent="1" vertex="1" connectable="0">
          <mxGeometry x="47" y="959" width="605" height="132" as="geometry" />
        </mxCell>
        <mxCell id="bTpTMNe7fyv-q265F9eC-113" value="" style="group" parent="bTpTMNe7fyv-q265F9eC-112" vertex="1" connectable="0">
          <mxGeometry width="605" height="132" as="geometry" />
        </mxCell>
        <mxCell id="bTpTMNe7fyv-q265F9eC-114" value="Alternative" style="shape=umlFrame;whiteSpace=wrap;html=1;pointerEvents=0;" parent="bTpTMNe7fyv-q265F9eC-113" vertex="1">
          <mxGeometry x="7.41421568627451" y="97" width="594.6200980392157" height="130" as="geometry" />
        </mxCell>
        <mxCell id="bTpTMNe7fyv-q265F9eC-116" value="" style="endArrow=block;dashed=1;endFill=0;endSize=12;html=1;rounded=0;" parent="bTpTMNe7fyv-q265F9eC-113" edge="1">
          <mxGeometry width="160" relative="1" as="geometry">
            <mxPoint x="605" y="124" as="sourcePoint" />
            <mxPoint x="385" y="124" as="targetPoint" />
          </mxGeometry>
        </mxCell>
        <mxCell id="bTpTMNe7fyv-q265F9eC-118" value="" style="endArrow=block;dashed=1;endFill=0;endSize=12;html=1;rounded=0;" parent="bTpTMNe7fyv-q265F9eC-113" edge="1">
          <mxGeometry width="160" relative="1" as="geometry">
            <mxPoint x="605" y="191" as="sourcePoint" />
            <mxPoint x="385" y="191" as="targetPoint" />
          </mxGeometry>
        </mxCell>
        <mxCell id="bTpTMNe7fyv-q265F9eC-119" value="Project not found" style="text;html=1;align=center;verticalAlign=middle;resizable=0;points=[];autosize=1;strokeColor=none;fillColor=none;" parent="bTpTMNe7fyv-q265F9eC-113" vertex="1">
          <mxGeometry x="434.99676470588236" y="169" width="110" height="30" as="geometry" />
        </mxCell>
        <mxCell id="bTpTMNe7fyv-q265F9eC-120" value="Invalid search re-input &lt;br&gt;search information" style="text;html=1;align=center;verticalAlign=middle;resizable=0;points=[];autosize=1;strokeColor=none;fillColor=none;" parent="bTpTMNe7fyv-q265F9eC-113" vertex="1">
          <mxGeometry x="220.00186274509804" y="180" width="140" height="40" as="geometry" />
        </mxCell>
        <mxCell id="bTpTMNe7fyv-q265F9eC-121" value="Project returned" style="text;html=1;align=center;verticalAlign=middle;resizable=0;points=[];autosize=1;strokeColor=none;fillColor=none;" parent="bTpTMNe7fyv-q265F9eC-113" vertex="1">
          <mxGeometry x="235.00029411764706" y="126" width="110" height="30" as="geometry" />
        </mxCell>
        <mxCell id="bTpTMNe7fyv-q265F9eC-122" value="" style="endArrow=none;dashed=1;html=1;rounded=0;exitX=0.002;exitY=0.5;exitDx=0;exitDy=0;exitPerimeter=0;entryX=1.005;entryY=0.5;entryDx=0;entryDy=0;entryPerimeter=0;" parent="bTpTMNe7fyv-q265F9eC-113" edge="1">
          <mxGeometry width="50" height="50" relative="1" as="geometry">
            <mxPoint x="4.29605392156866" y="168" as="sourcePoint" />
            <mxPoint x="600.7000122549018" y="168" as="targetPoint" />
          </mxGeometry>
        </mxCell>
        <mxCell id="bTpTMNe7fyv-q265F9eC-123" value="" style="endArrow=block;dashed=1;endFill=0;endSize=12;html=1;rounded=0;" parent="bTpTMNe7fyv-q265F9eC-113" edge="1">
          <mxGeometry width="160" relative="1" as="geometry">
            <mxPoint x="385" y="151" as="sourcePoint" />
            <mxPoint x="205" y="151" as="targetPoint" />
          </mxGeometry>
        </mxCell>
        <mxCell id="bTpTMNe7fyv-q265F9eC-124" value="" style="endArrow=block;dashed=1;endFill=0;endSize=12;html=1;rounded=0;" parent="bTpTMNe7fyv-q265F9eC-113" edge="1">
          <mxGeometry width="160" relative="1" as="geometry">
            <mxPoint x="380" y="215" as="sourcePoint" />
            <mxPoint x="200" y="215" as="targetPoint" />
          </mxGeometry>
        </mxCell>
        <mxCell id="bTpTMNe7fyv-q265F9eC-125" value="Project found and returned" style="text;html=1;align=center;verticalAlign=middle;resizable=0;points=[];autosize=1;strokeColor=none;fillColor=none;" parent="bTpTMNe7fyv-q265F9eC-113" vertex="1">
          <mxGeometry x="405" y="100" width="170" height="30" as="geometry" />
        </mxCell>
        <mxCell id="oqbLm9f_M_ahlJ9TREGO-1" value="" style="endArrow=classic;html=1;rounded=0;" edge="1" parent="1">
          <mxGeometry width="50" height="50" relative="1" as="geometry">
            <mxPoint x="117" y="1602" as="sourcePoint" />
            <mxPoint x="437" y="1602" as="targetPoint" />
          </mxGeometry>
        </mxCell>
        <mxCell id="oqbLm9f_M_ahlJ9TREGO-2" value="User Management" style="text;html=1;align=center;verticalAlign=middle;resizable=0;points=[];autosize=1;strokeColor=none;fillColor=none;" vertex="1" parent="1">
          <mxGeometry x="282" y="1580" width="120" height="30" as="geometry" />
        </mxCell>
        <mxCell id="oqbLm9f_M_ahlJ9TREGO-3" value="" style="endArrow=block;dashed=1;endFill=0;endSize=12;html=1;rounded=0;" edge="1" parent="1">
          <mxGeometry width="160" relative="1" as="geometry">
            <mxPoint x="432" y="821" as="sourcePoint" />
            <mxPoint x="652" y="821" as="targetPoint" />
          </mxGeometry>
        </mxCell>
        <mxCell id="oqbLm9f_M_ahlJ9TREGO-4" value="Verify User Input" style="text;html=1;align=center;verticalAlign=middle;resizable=0;points=[];autosize=1;strokeColor=none;fillColor=none;" vertex="1" parent="1">
          <mxGeometry x="497" y="797" width="110" height="30" as="geometry" />
        </mxCell>
        <mxCell id="oqbLm9f_M_ahlJ9TREGO-5" value="" style="endArrow=block;dashed=1;endFill=0;endSize=12;html=1;rounded=0;" edge="1" parent="1">
          <mxGeometry width="160" relative="1" as="geometry">
            <mxPoint x="432" y="1042" as="sourcePoint" />
            <mxPoint x="652" y="1042" as="targetPoint" />
          </mxGeometry>
        </mxCell>
        <mxCell id="oqbLm9f_M_ahlJ9TREGO-6" value="Search for Project" style="text;html=1;align=center;verticalAlign=middle;resizable=0;points=[];autosize=1;strokeColor=none;fillColor=none;" vertex="1" parent="1">
          <mxGeometry x="492" y="1018" width="120" height="30" as="geometry" />
        </mxCell>
        <mxCell id="oqbLm9f_M_ahlJ9TREGO-7" value="" style="endArrow=block;dashed=1;endFill=0;endSize=12;html=1;rounded=0;" edge="1" parent="1">
          <mxGeometry width="160" relative="1" as="geometry">
            <mxPoint x="432" y="1618" as="sourcePoint" />
            <mxPoint x="652" y="1618" as="targetPoint" />
          </mxGeometry>
        </mxCell>
        <mxCell id="oqbLm9f_M_ahlJ9TREGO-8" value="Is User Admin?" style="text;html=1;align=center;verticalAlign=middle;resizable=0;points=[];autosize=1;strokeColor=none;fillColor=none;" vertex="1" parent="1">
          <mxGeometry x="502" y="1594" width="100" height="30" as="geometry" />
        </mxCell>
        <mxCell id="oqbLm9f_M_ahlJ9TREGO-9" value="" style="group" vertex="1" connectable="0" parent="1">
          <mxGeometry x="47" y="1152" width="605" height="602" as="geometry" />
        </mxCell>
        <mxCell id="oqbLm9f_M_ahlJ9TREGO-10" value="" style="group" vertex="1" connectable="0" parent="oqbLm9f_M_ahlJ9TREGO-9">
          <mxGeometry width="605" height="602" as="geometry" />
        </mxCell>
        <mxCell id="oqbLm9f_M_ahlJ9TREGO-11" value="Alternative" style="shape=umlFrame;whiteSpace=wrap;html=1;pointerEvents=0;" vertex="1" parent="oqbLm9f_M_ahlJ9TREGO-10">
          <mxGeometry x="7.41421568627451" y="484" width="594.6200980392157" height="130" as="geometry" />
        </mxCell>
        <mxCell id="oqbLm9f_M_ahlJ9TREGO-13" value="" style="endArrow=block;dashed=1;endFill=0;endSize=12;html=1;rounded=0;" edge="1" parent="oqbLm9f_M_ahlJ9TREGO-10">
          <mxGeometry width="160" relative="1" as="geometry">
            <mxPoint x="605" y="511" as="sourcePoint" />
            <mxPoint x="385" y="511" as="targetPoint" />
          </mxGeometry>
        </mxCell>
        <mxCell id="oqbLm9f_M_ahlJ9TREGO-15" value="" style="endArrow=block;dashed=1;endFill=0;endSize=12;html=1;rounded=0;" edge="1" parent="oqbLm9f_M_ahlJ9TREGO-10">
          <mxGeometry width="160" relative="1" as="geometry">
            <mxPoint x="605" y="578" as="sourcePoint" />
            <mxPoint x="385" y="578" as="targetPoint" />
          </mxGeometry>
        </mxCell>
        <mxCell id="oqbLm9f_M_ahlJ9TREGO-16" value="User is not Admin" style="text;html=1;align=center;verticalAlign=middle;resizable=0;points=[];autosize=1;strokeColor=none;fillColor=none;" vertex="1" parent="oqbLm9f_M_ahlJ9TREGO-10">
          <mxGeometry x="429.99676470588236" y="556" width="120" height="30" as="geometry" />
        </mxCell>
        <mxCell id="oqbLm9f_M_ahlJ9TREGO-17" value="&lt;div style=&quot;text-align: center;&quot;&gt;&lt;span style=&quot;text-align: start; background-color: transparent;&quot;&gt;Insufficient privileges&amp;nbsp;&lt;/span&gt;&lt;span style=&quot;color: rgba(0, 0, 0, 0); font-family: monospace; font-size: 0px; text-align: start; background-color: transparent;&quot;&gt;%3CmxGraphModel%3E%3Croot%3E%3CmxCell%20id%3D%220%22%2F%3E%3CmxCell%20id%3D%221%22%20parent%3D%220%22%2F%3E%3CmxCell%20id%3D%222%22%20value%3D%22%22%20style%3D%22group%22%20vertex%3D%221%22%20connectable%3D%220%22%20parent%3D%221%22%3E%3CmxGeometry%20x%3D%2245%22%20y%3D%22797%22%20width%3D%22605%22%20height%3D%22132%22%20as%3D%22geometry%22%2F%3E%3C%2FmxCell%3E%3CmxCell%20id%3D%223%22%20value%3D%22%22%20style%3D%22group%22%20vertex%3D%221%22%20connectable%3D%220%22%20parent%3D%222%22%3E%3CmxGeometry%20width%3D%22605%22%20height%3D%22132%22%20as%3D%22geometry%22%2F%3E%3C%2FmxCell%3E%3CmxCell%20id%3D%224%22%20value%3D%22Alternative%22%20style%3D%22shape%3DumlFrame%3BwhiteSpace%3Dwrap%3Bhtml%3D1%3BpointerEvents%3D0%3B%22%20vertex%3D%221%22%20parent%3D%223%22%3E%3CmxGeometry%20x%3D%227.41421568627451%22%20y%3D%222%22%20width%3D%22594.6200980392157%22%20height%3D%22130%22%20as%3D%22geometry%22%2F%3E%3C%2FmxCell%3E%3CmxCell%20id%3D%225%22%20value%3D%22%5Bif%20info%20is%26lt%3Bbr%26gt%3Bvalid%26lt%3Bspan%20style%3D%26quot%3Bbackground-color%3A%20transparent%3B%20color%3A%20light-dark(rgb(0%2C%200%2C%200)%2C%20rgb(255%2C%20255%2C%20255))%3B%26quot%3B%26gt%3B%5D%26lt%3B%2Fspan%26gt%3B%22%20style%3D%22text%3Bhtml%3D1%3Balign%3Dcenter%3BverticalAlign%3Dmiddle%3Bresizable%3D0%3Bpoints%3D%5B%5D%3Bautosize%3D1%3BstrokeColor%3Dnone%3BfillColor%3Dnone%3B%22%20vertex%3D%221%22%20parent%3D%223%22%3E%3CmxGeometry%20y%3D%2231%22%20width%3D%2270%22%20height%3D%2240%22%20as%3D%22geometry%22%2F%3E%3C%2FmxCell%3E%3CmxCell%20id%3D%226%22%20value%3D%22%22%20style%3D%22endArrow%3Dblock%3Bdashed%3D1%3BendFill%3D0%3BendSize%3D12%3Bhtml%3D1%3Brounded%3D0%3B%22%20edge%3D%221%22%20parent%3D%223%22%3E%3CmxGeometry%20width%3D%22160%22%20relative%3D%221%22%20as%3D%22geometry%22%3E%3CmxPoint%20x%3D%22605%22%20y%3D%2229%22%20as%3D%22sourcePoint%22%2F%3E%3CmxPoint%20x%3D%22385%22%20y%3D%2229%22%20as%3D%22targetPoint%22%2F%3E%3C%2FmxGeometry%3E%3C%2FmxCell%3E%3CmxCell%20id%3D%227%22%20value%3D%22%5Belse%5D%22%20style%3D%22text%3Bhtml%3D1%3Balign%3Dcenter%3BverticalAlign%3Dmiddle%3Bresizable%3D0%3Bpoints%3D%5B%5D%3Bautosize%3D1%3BstrokeColor%3Dnone%3BfillColor%3Dnone%3B%22%20vertex%3D%221%22%20parent%3D%223%22%3E%3CmxGeometry%20x%3D%2216.311274509803923%22%20y%3D%2290%22%20width%3D%2250%22%20height%3D%2230%22%20as%3D%22geometry%22%2F%3E%3C%2FmxCell%3E%3CmxCell%20id%3D%228%22%20value%3D%22%22%20style%3D%22endArrow%3Dblock%3Bdashed%3D1%3BendFill%3D0%3BendSize%3D12%3Bhtml%3D1%3Brounded%3D0%3B%22%20edge%3D%221%22%20parent%3D%223%22%3E%3CmxGeometry%20width%3D%22160%22%20relative%3D%221%22%20as%3D%22geometry%22%3E%3CmxPoint%20x%3D%22605%22%20y%3D%2296%22%20as%3D%22sourcePoint%22%2F%3E%3CmxPoint%20x%3D%22385%22%20y%3D%2296%22%20as%3D%22targetPoint%22%2F%3E%3C%2FmxGeometry%3E%3C%2FmxCell%3E%3CmxCell%20id%3D%229%22%20value%3D%22Project%20not%20found%22%20style%3D%22text%3Bhtml%3D1%3Balign%3Dcenter%3BverticalAlign%3Dmiddle%3Bresizable%3D0%3Bpoints%3D%5B%5D%3Bautosize%3D1%3BstrokeColor%3Dnone%3BfillColor%3Dnone%3B%22%20vertex%3D%221%22%20parent%3D%223%22%3E%3CmxGeometry%20x%3D%22434.99676470588236%22%20y%3D%2274%22%20width%3D%22110%22%20height%3D%2230%22%20as%3D%22geometry%22%2F%3E%3C%2FmxCell%3E%3CmxCell%20id%3D%2210%22%20value%3D%22Invalid%20search%20re-input%20%26lt%3Bbr%26gt%3Bsearch%20information%22%20style%3D%22text%3Bhtml%3D1%3Balign%3Dcenter%3BverticalAlign%3Dmiddle%3Bresizable%3D0%3Bpoints%3D%5B%5D%3Bautosize%3D1%3BstrokeColor%3Dnone%3BfillColor%3Dnone%3B%22%20vertex%3D%221%22%20parent%3D%223%22%3E%3CmxGeometry%20x%3D%22220.00186274509804%22%20y%3D%2285%22%20width%3D%22140%22%20height%3D%2240%22%20as%3D%22geometry%22%2F%3E%3C%2FmxCell%3E%3CmxCell%20id%3D%2211%22%20value%3D%22Project%20returned%22%20style%3D%22text%3Bhtml%3D1%3Balign%3Dcenter%3BverticalAlign%3Dmiddle%3Bresizable%3D0%3Bpoints%3D%5B%5D%3Bautosize%3D1%3BstrokeColor%3Dnone%3BfillColor%3Dnone%3B%22%20vertex%3D%221%22%20parent%3D%223%22%3E%3CmxGeometry%20x%3D%22235.00029411764706%22%20y%3D%2231%22%20width%3D%22110%22%20height%3D%2230%22%20as%3D%22geometry%22%2F%3E%3C%2FmxCell%3E%3CmxCell%20id%3D%2212%22%20value%3D%22%22%20style%3D%22endArrow%3Dnone%3Bdashed%3D1%3Bhtml%3D1%3Brounded%3D0%3BexitX%3D0.002%3BexitY%3D0.5%3BexitDx%3D0%3BexitDy%3D0%3BexitPerimeter%3D0%3BentryX%3D1.005%3BentryY%3D0.5%3BentryDx%3D0%3BentryDy%3D0%3BentryPerimeter%3D0%3B%22%20edge%3D%221%22%20parent%3D%223%22%3E%3CmxGeometry%20width%3D%2250%22%20height%3D%2250%22%20relative%3D%221%22%20as%3D%22geometry%22%3E%3CmxPoint%20x%3D%224.29605392156866%22%20y%3D%2273%22%20as%3D%22sourcePoint%22%2F%3E%3CmxPoint%20x%3D%22600.7000122549018%22%20y%3D%2273%22%20as%3D%22targetPoint%22%2F%3E%3C%2FmxGeometry%3E%3C%2FmxCell%3E%3CmxCell%20id%3D%2213%22%20value%3D%22%22%20style%3D%22endArrow%3Dblock%3Bdashed%3D1%3BendFill%3D0%3BendSize%3D12%3Bhtml%3D1%3Brounded%3D0%3B%22%20edge%3D%221%22%20parent%3D%223%22%3E%3CmxGeometry%20width%3D%22160%22%20relative%3D%221%22%20as%3D%22geometry%22%3E%3CmxPoint%20x%3D%22385%22%20y%3D%2256%22%20as%3D%22sourcePoint%22%2F%3E%3CmxPoint%20x%3D%22205%22%20y%3D%2256%22%20as%3D%22targetPoint%22%2F%3E%3C%2FmxGeometry%3E%3C%2FmxCell%3E%3CmxCell%20id%3D%2214%22%20value%3D%22%22%20style%3D%22endArrow%3Dblock%3Bdashed%3D1%3BendFill%3D0%3BendSize%3D12%3Bhtml%3D1%3Brounded%3D0%3B%22%20edge%3D%221%22%20parent%3D%223%22%3E%3CmxGeometry%20width%3D%22160%22%20relative%3D%221%22%20as%3D%22geometry%22%3E%3CmxPoint%20x%3D%22380%22%20y%3D%22120%22%20as%3D%22sourcePoint%22%2F%3E%3CmxPoint%20x%3D%22200%22%20y%3D%22120%22%20as%3D%22targetPoint%22%2F%3E%3C%2FmxGeometry%3E%3C%2FmxCell%3E%3CmxCell%20id%3D%2215%22%20value%3D%22Project%20found%20and%20returned%22%20style%3D%22text%3Bhtml%3D1%3Balign%3Dcenter%3BverticalAlign%3Dmiddle%3Bresizable%3D0%3Bpoints%3D%5B%5D%3Bautosize%3D1%3BstrokeColor%3Dnone%3BfillColor%3Dnone%3B%22%20vertex%3D%221%22%20parent%3D%223%22%3E%3CmxGeometry%20x%3D%22405%22%20y%3D%225%22%20width%3D%22170%22%20height%3D%2230%22%20as%3D%22geometry%22%2F%3E%3C%2FmxCell%3E%3C%2Froot%3E%3C%2FmxGraphModel%3Erivi&lt;/span&gt;&lt;/div&gt;" style="text;html=1;align=center;verticalAlign=middle;resizable=0;points=[];autosize=1;strokeColor=none;fillColor=none;" vertex="1" parent="oqbLm9f_M_ahlJ9TREGO-10">
          <mxGeometry x="220.00186274509804" y="577" width="140" height="30" as="geometry" />
        </mxCell>
        <mxCell id="oqbLm9f_M_ahlJ9TREGO-18" value="User Management Page&lt;br&gt;Returned" style="text;html=1;align=center;verticalAlign=middle;resizable=0;points=[];autosize=1;strokeColor=none;fillColor=none;" vertex="1" parent="oqbLm9f_M_ahlJ9TREGO-10">
          <mxGeometry x="215.00029411764706" y="501" width="150" height="40" as="geometry" />
        </mxCell>
        <mxCell id="oqbLm9f_M_ahlJ9TREGO-19" value="" style="endArrow=none;dashed=1;html=1;rounded=0;exitX=0.002;exitY=0.5;exitDx=0;exitDy=0;exitPerimeter=0;entryX=1.005;entryY=0.5;entryDx=0;entryDy=0;entryPerimeter=0;" edge="1" parent="oqbLm9f_M_ahlJ9TREGO-10">
          <mxGeometry width="50" height="50" relative="1" as="geometry">
            <mxPoint x="4.29605392156866" y="555" as="sourcePoint" />
            <mxPoint x="600.7000122549018" y="555" as="targetPoint" />
          </mxGeometry>
        </mxCell>
        <mxCell id="oqbLm9f_M_ahlJ9TREGO-20" value="" style="endArrow=block;dashed=1;endFill=0;endSize=12;html=1;rounded=0;" edge="1" parent="oqbLm9f_M_ahlJ9TREGO-10">
          <mxGeometry width="160" relative="1" as="geometry">
            <mxPoint x="385" y="538" as="sourcePoint" />
            <mxPoint x="205" y="538" as="targetPoint" />
          </mxGeometry>
        </mxCell>
        <mxCell id="oqbLm9f_M_ahlJ9TREGO-21" value="" style="endArrow=block;dashed=1;endFill=0;endSize=12;html=1;rounded=0;" edge="1" parent="oqbLm9f_M_ahlJ9TREGO-10">
          <mxGeometry width="160" relative="1" as="geometry">
            <mxPoint x="380" y="602" as="sourcePoint" />
            <mxPoint x="200" y="602" as="targetPoint" />
          </mxGeometry>
        </mxCell>
        <mxCell id="oqbLm9f_M_ahlJ9TREGO-22" value="User is Admin &amp;amp; Page returned" style="text;html=1;align=center;verticalAlign=middle;resizable=0;points=[];autosize=1;strokeColor=none;fillColor=none;" vertex="1" parent="oqbLm9f_M_ahlJ9TREGO-10">
          <mxGeometry x="395" y="487" width="190" height="30" as="geometry" />
        </mxCell>
        <mxCell id="oqbLm9f_M_ahlJ9TREGO-171" value="" style="endArrow=classic;html=1;rounded=0;" edge="1" parent="oqbLm9f_M_ahlJ9TREGO-10">
          <mxGeometry width="50" height="50" relative="1" as="geometry">
            <mxPoint x="66" y="74" as="sourcePoint" />
            <mxPoint x="386" y="74" as="targetPoint" />
          </mxGeometry>
        </mxCell>
        <mxCell id="oqbLm9f_M_ahlJ9TREGO-172" value="Modify Project Details &lt;br&gt;(from project search)" style="text;html=1;align=center;verticalAlign=middle;resizable=0;points=[];autosize=1;strokeColor=none;fillColor=none;" vertex="1" parent="oqbLm9f_M_ahlJ9TREGO-10">
          <mxGeometry x="226" y="36" width="140" height="40" as="geometry" />
        </mxCell>
        <mxCell id="oqbLm9f_M_ahlJ9TREGO-173" value="" style="endArrow=block;dashed=1;endFill=0;endSize=12;html=1;rounded=0;" edge="1" parent="oqbLm9f_M_ahlJ9TREGO-10">
          <mxGeometry width="160" relative="1" as="geometry">
            <mxPoint x="199.03" y="100" as="sourcePoint" />
            <mxPoint x="602.03" y="100" as="targetPoint" />
          </mxGeometry>
        </mxCell>
        <mxCell id="oqbLm9f_M_ahlJ9TREGO-174" value="Request Correct Page" style="text;html=1;align=center;verticalAlign=middle;resizable=0;points=[];autosize=1;strokeColor=none;fillColor=none;" vertex="1" parent="oqbLm9f_M_ahlJ9TREGO-10">
          <mxGeometry x="225.99999999999997" y="76" width="140" height="30" as="geometry" />
        </mxCell>
        <mxCell id="oqbLm9f_M_ahlJ9TREGO-175" value="" style="endArrow=block;dashed=1;endFill=0;endSize=12;html=1;rounded=0;" edge="1" parent="oqbLm9f_M_ahlJ9TREGO-10">
          <mxGeometry width="160" relative="1" as="geometry">
            <mxPoint x="602.03" y="130" as="sourcePoint" />
            <mxPoint x="199.03" y="130" as="targetPoint" />
          </mxGeometry>
        </mxCell>
        <mxCell id="oqbLm9f_M_ahlJ9TREGO-176" value="Return Correct Page" style="text;html=1;align=center;verticalAlign=middle;resizable=0;points=[];autosize=1;strokeColor=none;fillColor=none;" vertex="1" parent="oqbLm9f_M_ahlJ9TREGO-10">
          <mxGeometry x="425" y="106" width="130" height="30" as="geometry" />
        </mxCell>
        <mxCell id="oqbLm9f_M_ahlJ9TREGO-14" value="[else]" style="text;html=1;align=center;verticalAlign=middle;resizable=0;points=[];autosize=1;strokeColor=none;fillColor=none;" vertex="1" parent="oqbLm9f_M_ahlJ9TREGO-10">
          <mxGeometry x="13.00127450980392" y="572" width="50" height="30" as="geometry" />
        </mxCell>
        <mxCell id="oqbLm9f_M_ahlJ9TREGO-184" value="Insert Project Information" style="text;html=1;align=center;verticalAlign=middle;resizable=0;points=[];autosize=1;strokeColor=none;fillColor=none;" vertex="1" parent="oqbLm9f_M_ahlJ9TREGO-10">
          <mxGeometry x="215" y="168" width="160" height="30" as="geometry" />
        </mxCell>
        <mxCell id="oqbLm9f_M_ahlJ9TREGO-185" value="" style="endArrow=block;dashed=1;endFill=0;endSize=12;html=1;rounded=0;" edge="1" parent="oqbLm9f_M_ahlJ9TREGO-10">
          <mxGeometry width="160" relative="1" as="geometry">
            <mxPoint x="68" y="192" as="sourcePoint" />
            <mxPoint x="388" y="192" as="targetPoint" />
          </mxGeometry>
        </mxCell>
        <mxCell id="oqbLm9f_M_ahlJ9TREGO-186" value="" style="endArrow=block;dashed=1;endFill=0;endSize=12;html=1;rounded=0;" edge="1" parent="oqbLm9f_M_ahlJ9TREGO-10">
          <mxGeometry width="160" relative="1" as="geometry">
            <mxPoint x="385" y="206" as="sourcePoint" />
            <mxPoint x="605" y="206" as="targetPoint" />
          </mxGeometry>
        </mxCell>
        <mxCell id="oqbLm9f_M_ahlJ9TREGO-187" value="Verify User Input" style="text;html=1;align=center;verticalAlign=middle;resizable=0;points=[];autosize=1;strokeColor=none;fillColor=none;" vertex="1" parent="oqbLm9f_M_ahlJ9TREGO-10">
          <mxGeometry x="450" y="182" width="110" height="30" as="geometry" />
        </mxCell>
        <mxCell id="oqbLm9f_M_ahlJ9TREGO-182" value="" style="endArrow=none;dashed=1;html=1;rounded=0;exitX=0.002;exitY=0.5;exitDx=0;exitDy=0;exitPerimeter=0;entryX=1.005;entryY=0.5;entryDx=0;entryDy=0;entryPerimeter=0;" edge="1" parent="oqbLm9f_M_ahlJ9TREGO-10">
          <mxGeometry width="50" height="50" relative="1" as="geometry">
            <mxPoint x="5.62605392156866" y="308" as="sourcePoint" />
            <mxPoint x="602.0300122549019" y="308" as="targetPoint" />
          </mxGeometry>
        </mxCell>
        <mxCell id="oqbLm9f_M_ahlJ9TREGO-183" value="[else]" style="text;html=1;align=center;verticalAlign=middle;resizable=0;points=[];autosize=1;strokeColor=none;fillColor=none;" vertex="1" parent="oqbLm9f_M_ahlJ9TREGO-10">
          <mxGeometry x="13.00127450980392" y="338" width="50" height="30" as="geometry" />
        </mxCell>
        <mxCell id="oqbLm9f_M_ahlJ9TREGO-190" value="Project Updated" style="text;html=1;align=center;verticalAlign=middle;resizable=0;points=[];autosize=1;strokeColor=none;fillColor=none;" vertex="1" parent="oqbLm9f_M_ahlJ9TREGO-10">
          <mxGeometry x="241.00029411764706" y="248" width="110" height="30" as="geometry" />
        </mxCell>
        <mxCell id="oqbLm9f_M_ahlJ9TREGO-191" value="" style="endArrow=block;dashed=1;endFill=0;endSize=12;html=1;rounded=0;" edge="1" parent="oqbLm9f_M_ahlJ9TREGO-10">
          <mxGeometry width="160" relative="1" as="geometry">
            <mxPoint x="389" y="273" as="sourcePoint" />
            <mxPoint x="196" y="273" as="targetPoint" />
          </mxGeometry>
        </mxCell>
        <mxCell id="oqbLm9f_M_ahlJ9TREGO-189" value="Input is Valid and Project&lt;br&gt;Information is updated in db" style="text;html=1;align=center;verticalAlign=middle;resizable=0;points=[];autosize=1;strokeColor=none;fillColor=none;" vertex="1" parent="oqbLm9f_M_ahlJ9TREGO-10">
          <mxGeometry x="418" y="218" width="170" height="40" as="geometry" />
        </mxCell>
        <mxCell id="oqbLm9f_M_ahlJ9TREGO-193" value="Input is Invalid Project not altered" style="text;html=1;align=center;verticalAlign=middle;resizable=0;points=[];autosize=1;strokeColor=none;fillColor=none;" vertex="1" parent="oqbLm9f_M_ahlJ9TREGO-10">
          <mxGeometry x="402.28" y="313" width="200" height="30" as="geometry" />
        </mxCell>
        <mxCell id="oqbLm9f_M_ahlJ9TREGO-194" value="" style="endArrow=block;dashed=1;endFill=0;endSize=12;html=1;rounded=0;" edge="1" parent="oqbLm9f_M_ahlJ9TREGO-10">
          <mxGeometry width="160" relative="1" as="geometry">
            <mxPoint x="605" y="342" as="sourcePoint" />
            <mxPoint x="385" y="342" as="targetPoint" />
          </mxGeometry>
        </mxCell>
        <mxCell id="oqbLm9f_M_ahlJ9TREGO-197" value="" style="endArrow=classic;html=1;rounded=0;" edge="1" parent="oqbLm9f_M_ahlJ9TREGO-10">
          <mxGeometry width="50" height="50" relative="1" as="geometry">
            <mxPoint x="388.079150330319" y="368.9531751139716" as="sourcePoint" />
            <mxPoint x="193" y="368" as="targetPoint" />
          </mxGeometry>
        </mxCell>
        <mxCell id="oqbLm9f_M_ahlJ9TREGO-198" value="Re-input Information" style="text;html=1;align=center;verticalAlign=middle;resizable=0;points=[];autosize=1;strokeColor=none;fillColor=none;" vertex="1" parent="oqbLm9f_M_ahlJ9TREGO-10">
          <mxGeometry x="229.99997783207021" y="342.9985009385896" width="130" height="30" as="geometry" />
        </mxCell>
        <mxCell id="oqbLm9f_M_ahlJ9TREGO-24" value="Input User Information" style="text;html=1;align=center;verticalAlign=middle;resizable=0;points=[];autosize=1;strokeColor=none;fillColor=none;" vertex="1" parent="1">
          <mxGeometry x="272" y="1844" width="140" height="30" as="geometry" />
        </mxCell>
        <mxCell id="oqbLm9f_M_ahlJ9TREGO-25" value="" style="endArrow=classic;html=1;rounded=0;" edge="1" parent="1">
          <mxGeometry width="50" height="50" relative="1" as="geometry">
            <mxPoint x="117" y="1807" as="sourcePoint" />
            <mxPoint x="437" y="1807" as="targetPoint" />
          </mxGeometry>
        </mxCell>
        <mxCell id="oqbLm9f_M_ahlJ9TREGO-26" value="Choose de-activation or&lt;br&gt;user delete" style="text;html=1;align=center;verticalAlign=middle;resizable=0;points=[];autosize=1;strokeColor=none;fillColor=none;" vertex="1" parent="1">
          <mxGeometry x="267" y="1769" width="150" height="40" as="geometry" />
        </mxCell>
        <mxCell id="oqbLm9f_M_ahlJ9TREGO-27" value="" style="endArrow=block;dashed=1;endFill=0;endSize=12;html=1;rounded=0;" edge="1" parent="1">
          <mxGeometry width="160" relative="1" as="geometry">
            <mxPoint x="432" y="1818" as="sourcePoint" />
            <mxPoint x="652" y="1818" as="targetPoint" />
          </mxGeometry>
        </mxCell>
        <mxCell id="oqbLm9f_M_ahlJ9TREGO-28" value="Request Correct Page" style="text;html=1;align=center;verticalAlign=middle;resizable=0;points=[];autosize=1;strokeColor=none;fillColor=none;" vertex="1" parent="1">
          <mxGeometry x="477" y="1794" width="140" height="30" as="geometry" />
        </mxCell>
        <mxCell id="oqbLm9f_M_ahlJ9TREGO-30" value="" style="endArrow=block;dashed=1;endFill=0;endSize=12;html=1;rounded=0;" edge="1" parent="1">
          <mxGeometry width="160" relative="1" as="geometry">
            <mxPoint x="652" y="1848" as="sourcePoint" />
            <mxPoint x="432" y="1848" as="targetPoint" />
          </mxGeometry>
        </mxCell>
        <mxCell id="oqbLm9f_M_ahlJ9TREGO-31" value="Return Correct Page" style="text;html=1;align=center;verticalAlign=middle;resizable=0;points=[];autosize=1;strokeColor=none;fillColor=none;" vertex="1" parent="1">
          <mxGeometry x="477" y="1824" width="130" height="30" as="geometry" />
        </mxCell>
        <mxCell id="oqbLm9f_M_ahlJ9TREGO-33" value="" style="endArrow=block;dashed=1;endFill=0;endSize=12;html=1;rounded=0;" edge="1" parent="1">
          <mxGeometry width="160" relative="1" as="geometry">
            <mxPoint x="112" y="1868" as="sourcePoint" />
            <mxPoint x="432" y="1868" as="targetPoint" />
          </mxGeometry>
        </mxCell>
        <mxCell id="oqbLm9f_M_ahlJ9TREGO-34" value="" style="group" vertex="1" connectable="0" parent="1">
          <mxGeometry x="47" y="1781" width="605" height="150" as="geometry" />
        </mxCell>
        <mxCell id="oqbLm9f_M_ahlJ9TREGO-35" value="" style="group" vertex="1" connectable="0" parent="oqbLm9f_M_ahlJ9TREGO-34">
          <mxGeometry width="605" height="150" as="geometry" />
        </mxCell>
        <mxCell id="oqbLm9f_M_ahlJ9TREGO-36" value="Alternative" style="shape=umlFrame;whiteSpace=wrap;html=1;pointerEvents=0;" vertex="1" parent="oqbLm9f_M_ahlJ9TREGO-35">
          <mxGeometry x="7.41" y="97" width="594.62" height="148" as="geometry" />
        </mxCell>
        <mxCell id="oqbLm9f_M_ahlJ9TREGO-38" value="" style="endArrow=block;dashed=1;endFill=0;endSize=12;html=1;rounded=0;" edge="1" parent="oqbLm9f_M_ahlJ9TREGO-35">
          <mxGeometry width="160" relative="1" as="geometry">
            <mxPoint x="605" y="150" as="sourcePoint" />
            <mxPoint x="385" y="150" as="targetPoint" />
          </mxGeometry>
        </mxCell>
        <mxCell id="oqbLm9f_M_ahlJ9TREGO-40" value="" style="endArrow=block;dashed=1;endFill=0;endSize=12;html=1;rounded=0;" edge="1" parent="oqbLm9f_M_ahlJ9TREGO-35">
          <mxGeometry width="160" relative="1" as="geometry">
            <mxPoint x="605" y="220" as="sourcePoint" />
            <mxPoint x="385" y="220" as="targetPoint" />
          </mxGeometry>
        </mxCell>
        <mxCell id="oqbLm9f_M_ahlJ9TREGO-41" value="User is not Found" style="text;html=1;align=center;verticalAlign=middle;resizable=0;points=[];autosize=1;strokeColor=none;fillColor=none;" vertex="1" parent="oqbLm9f_M_ahlJ9TREGO-35">
          <mxGeometry x="429.99676470588236" y="198" width="120" height="30" as="geometry" />
        </mxCell>
        <mxCell id="oqbLm9f_M_ahlJ9TREGO-42" value="&lt;div style=&quot;text-align: start;&quot;&gt;Invalid Input&lt;/div&gt;" style="text;html=1;align=center;verticalAlign=middle;resizable=0;points=[];autosize=1;strokeColor=none;fillColor=none;" vertex="1" parent="oqbLm9f_M_ahlJ9TREGO-35">
          <mxGeometry x="245.00186274509804" y="203" width="90" height="30" as="geometry" />
        </mxCell>
        <mxCell id="oqbLm9f_M_ahlJ9TREGO-43" value="User changed Succesfully" style="text;html=1;align=center;verticalAlign=middle;resizable=0;points=[];autosize=1;strokeColor=none;fillColor=none;" vertex="1" parent="oqbLm9f_M_ahlJ9TREGO-35">
          <mxGeometry x="210.00029411764706" y="134" width="160" height="30" as="geometry" />
        </mxCell>
        <mxCell id="oqbLm9f_M_ahlJ9TREGO-44" value="" style="endArrow=none;dashed=1;html=1;rounded=0;exitX=0.002;exitY=0.5;exitDx=0;exitDy=0;exitPerimeter=0;entryX=1.005;entryY=0.5;entryDx=0;entryDy=0;entryPerimeter=0;" edge="1" parent="oqbLm9f_M_ahlJ9TREGO-35">
          <mxGeometry width="50" height="50" relative="1" as="geometry">
            <mxPoint x="4.29605392156866" y="181" as="sourcePoint" />
            <mxPoint x="600.7000122549018" y="181" as="targetPoint" />
          </mxGeometry>
        </mxCell>
        <mxCell id="oqbLm9f_M_ahlJ9TREGO-45" value="" style="endArrow=block;dashed=1;endFill=0;endSize=12;html=1;rounded=0;" edge="1" parent="oqbLm9f_M_ahlJ9TREGO-35">
          <mxGeometry width="160" relative="1" as="geometry">
            <mxPoint x="385" y="166" as="sourcePoint" />
            <mxPoint x="205" y="166" as="targetPoint" />
          </mxGeometry>
        </mxCell>
        <mxCell id="oqbLm9f_M_ahlJ9TREGO-46" value="" style="endArrow=block;dashed=1;endFill=0;endSize=12;html=1;rounded=0;" edge="1" parent="oqbLm9f_M_ahlJ9TREGO-35">
          <mxGeometry width="160" relative="1" as="geometry">
            <mxPoint x="380" y="228" as="sourcePoint" />
            <mxPoint x="200" y="228" as="targetPoint" />
          </mxGeometry>
        </mxCell>
        <mxCell id="oqbLm9f_M_ahlJ9TREGO-47" value="User is Found and deleted/&lt;br&gt;deactivated in database" style="text;html=1;align=center;verticalAlign=middle;resizable=0;points=[];autosize=1;strokeColor=none;fillColor=none;fontSize=12;" vertex="1" parent="oqbLm9f_M_ahlJ9TREGO-35">
          <mxGeometry x="405" y="117" width="170" height="40" as="geometry" />
        </mxCell>
        <mxCell id="oqbLm9f_M_ahlJ9TREGO-48" value="" style="endArrow=block;dashed=1;endFill=0;endSize=12;html=1;rounded=0;" edge="1" parent="oqbLm9f_M_ahlJ9TREGO-35">
          <mxGeometry width="160" relative="1" as="geometry">
            <mxPoint x="385" y="121" as="sourcePoint" />
            <mxPoint x="605" y="121" as="targetPoint" />
          </mxGeometry>
        </mxCell>
        <mxCell id="oqbLm9f_M_ahlJ9TREGO-49" value="Search for User and do action" style="text;html=1;align=center;verticalAlign=middle;resizable=0;points=[];autosize=1;strokeColor=none;fillColor=none;" vertex="1" parent="oqbLm9f_M_ahlJ9TREGO-35">
          <mxGeometry x="410" y="97" width="180" height="30" as="geometry" />
        </mxCell>
        <mxCell id="oqbLm9f_M_ahlJ9TREGO-51" value="" style="endArrow=block;dashed=1;endFill=0;endSize=12;html=1;rounded=0;" edge="1" parent="oqbLm9f_M_ahlJ9TREGO-35">
          <mxGeometry width="160" relative="1" as="geometry">
            <mxPoint x="385" y="201" as="sourcePoint" />
            <mxPoint x="605" y="201" as="targetPoint" />
          </mxGeometry>
        </mxCell>
        <mxCell id="oqbLm9f_M_ahlJ9TREGO-52" value="Search for User and do action" style="text;html=1;align=center;verticalAlign=middle;resizable=0;points=[];autosize=1;strokeColor=none;fillColor=none;" vertex="1" parent="oqbLm9f_M_ahlJ9TREGO-35">
          <mxGeometry x="410" y="177" width="180" height="30" as="geometry" />
        </mxCell>
        <mxCell id="oqbLm9f_M_ahlJ9TREGO-119" value="[if input &amp;amp;&lt;br&gt;2FA are&lt;br&gt;valid&lt;span style=&quot;background-color: transparent; color: light-dark(rgb(0, 0, 0), rgb(255, 255, 255));&quot;&gt;]&lt;/span&gt;" style="text;html=1;align=center;verticalAlign=middle;resizable=0;points=[];autosize=1;strokeColor=none;fillColor=none;" vertex="1" parent="1">
          <mxGeometry x="46.40999999999997" y="601.6127272727272" width="70" height="60" as="geometry" />
        </mxCell>
        <mxCell id="oqbLm9f_M_ahlJ9TREGO-120" value="" style="endArrow=block;dashed=1;endFill=0;endSize=12;html=1;rounded=0;" edge="1" parent="1">
          <mxGeometry width="160" relative="1" as="geometry">
            <mxPoint x="636.37" y="596.8199999999999" as="sourcePoint" />
            <mxPoint x="433.36" y="596.8199999999999" as="targetPoint" />
            <Array as="points">
              <mxPoint x="523.36" y="596.8199999999999" />
            </Array>
          </mxGeometry>
        </mxCell>
        <mxCell id="oqbLm9f_M_ahlJ9TREGO-121" value="Prompts 2FA if Input is valid" style="text;html=1;align=center;verticalAlign=middle;resizable=0;points=[];autosize=1;strokeColor=none;fillColor=none;" vertex="1" parent="1">
          <mxGeometry x="449.3709947352362" y="569.8183480735631" width="170" height="30" as="geometry" />
        </mxCell>
        <mxCell id="oqbLm9f_M_ahlJ9TREGO-122" value="" style="endArrow=classic;html=1;rounded=0;entryX=1.012;entryY=0.665;entryDx=0;entryDy=0;entryPerimeter=0;" edge="1" parent="1">
          <mxGeometry width="50" height="50" relative="1" as="geometry">
            <mxPoint x="244.36915033031903" y="659.6441335947325" as="sourcePoint" />
            <mxPoint x="110.20970638731626" y="659.0117924845154" as="targetPoint" />
          </mxGeometry>
        </mxCell>
        <mxCell id="oqbLm9f_M_ahlJ9TREGO-123" value="Password Changed" style="text;html=1;align=center;verticalAlign=middle;resizable=0;points=[];autosize=1;strokeColor=none;fillColor=none;" vertex="1" parent="1">
          <mxGeometry x="112.67997783207022" y="636.9652920822625" width="130" height="30" as="geometry" />
        </mxCell>
        <mxCell id="oqbLm9f_M_ahlJ9TREGO-124" value="[else]" style="text;html=1;align=center;verticalAlign=middle;resizable=0;points=[];autosize=1;strokeColor=none;fillColor=none;" vertex="1" parent="1">
          <mxGeometry x="55.68120690397268" y="673.5472727272727" width="50" height="30" as="geometry" />
        </mxCell>
        <mxCell id="oqbLm9f_M_ahlJ9TREGO-125" value="" style="endArrow=block;dashed=1;endFill=0;endSize=12;html=1;rounded=0;" edge="1" parent="1">
          <mxGeometry width="160" relative="1" as="geometry">
            <mxPoint x="641.3975047481073" y="693.1108934694482" as="sourcePoint" />
            <mxPoint x="244.36915033031903" y="693.1079972506229" as="targetPoint" />
          </mxGeometry>
        </mxCell>
        <mxCell id="oqbLm9f_M_ahlJ9TREGO-126" value="Invalid User Input/2FA code" style="text;html=1;align=center;verticalAlign=middle;resizable=0;points=[];autosize=1;strokeColor=none;fillColor=none;" vertex="1" parent="1">
          <mxGeometry x="459.3649824853268" y="673.6429932280967" width="170" height="30" as="geometry" />
        </mxCell>
        <mxCell id="oqbLm9f_M_ahlJ9TREGO-127" value="" style="endArrow=classic;html=1;rounded=0;entryX=1.054;entryY=0.9;entryDx=0;entryDy=0;entryPerimeter=0;" edge="1" parent="1">
          <mxGeometry width="50" height="50" relative="1" as="geometry">
            <mxPoint x="252.66915033031898" y="709.3654545454544" as="sourcePoint" />
            <mxPoint x="111.68100920034453" y="709.3654545454544" as="targetPoint" />
          </mxGeometry>
        </mxCell>
        <mxCell id="oqbLm9f_M_ahlJ9TREGO-128" value="Re-input information" style="text;html=1;align=center;verticalAlign=middle;resizable=0;points=[];autosize=1;strokeColor=none;fillColor=none;" vertex="1" parent="1">
          <mxGeometry x="117.67157260626686" y="689.9977152051488" width="130" height="30" as="geometry" />
        </mxCell>
        <mxCell id="oqbLm9f_M_ahlJ9TREGO-129" value="Validate User Input" style="text;html=1;align=center;verticalAlign=middle;resizable=0;points=[];autosize=1;strokeColor=none;fillColor=none;" vertex="1" parent="1">
          <mxGeometry x="269.3694029994456" y="566.9962522553483" width="120" height="30" as="geometry" />
        </mxCell>
        <mxCell id="oqbLm9f_M_ahlJ9TREGO-130" value="" style="endArrow=block;dashed=1;endFill=0;endSize=12;html=1;rounded=0;" edge="1" parent="1">
          <mxGeometry width="160" relative="1" as="geometry">
            <mxPoint x="251.36915033031903" y="586.907756680127" as="sourcePoint" />
            <mxPoint x="431.36840427889194" y="586.907756680127" as="targetPoint" />
          </mxGeometry>
        </mxCell>
        <mxCell id="oqbLm9f_M_ahlJ9TREGO-131" value="Input 2FA Code" style="text;html=1;align=center;verticalAlign=middle;resizable=0;points=[];autosize=1;strokeColor=none;fillColor=none;" vertex="1" parent="1">
          <mxGeometry x="122.3696684215879" y="589.8900575650828" width="110" height="30" as="geometry" />
        </mxCell>
        <mxCell id="oqbLm9f_M_ahlJ9TREGO-132" value="" style="endArrow=block;dashed=1;endFill=0;endSize=12;html=1;rounded=0;" edge="1" parent="1">
          <mxGeometry width="160" relative="1" as="geometry">
            <mxPoint x="109.36970986888946" y="612.9980221668527" as="sourcePoint" />
            <mxPoint x="249.36912960666825" y="612.9980221668527" as="targetPoint" />
          </mxGeometry>
        </mxCell>
        <mxCell id="oqbLm9f_M_ahlJ9TREGO-133" value="Verify Code" style="text;html=1;align=center;verticalAlign=middle;resizable=0;points=[];autosize=1;strokeColor=none;fillColor=none;" vertex="1" parent="1">
          <mxGeometry x="289.36896381746226" y="605.690057565083" width="90" height="30" as="geometry" />
        </mxCell>
        <mxCell id="oqbLm9f_M_ahlJ9TREGO-134" value="" style="endArrow=block;dashed=1;endFill=0;endSize=12;html=1;rounded=0;entryX=1.001;entryY=0.335;entryDx=0;entryDy=0;entryPerimeter=0;" edge="1" parent="1">
          <mxGeometry width="160" relative="1" as="geometry">
            <mxPoint x="244.36915033031903" y="625.8051018128706" as="sourcePoint" />
            <mxPoint x="641.9964360892176" y="626.5275877340291" as="targetPoint" />
          </mxGeometry>
        </mxCell>
        <mxCell id="oqbLm9f_M_ahlJ9TREGO-135" value="" style="endArrow=block;dashed=1;endFill=0;endSize=12;html=1;rounded=0;" edge="1" parent="1">
          <mxGeometry width="160" relative="1" as="geometry">
            <mxPoint x="644.3674924382586" y="651.726555546009" as="sourcePoint" />
            <mxPoint x="244.36915033031903" y="651.726555546009" as="targetPoint" />
          </mxGeometry>
        </mxCell>
        <mxCell id="oqbLm9f_M_ahlJ9TREGO-136" value="If Code Correct Updates Password &lt;br&gt;in db" style="text;html=1;align=center;verticalAlign=middle;resizable=0;points=[];autosize=1;strokeColor=none;fillColor=none;fontSize=10;" vertex="1" parent="1">
          <mxGeometry x="439.3682592133365" y="621.6115112982216" width="180" height="40" as="geometry" />
        </mxCell>
        <mxCell id="oqbLm9f_M_ahlJ9TREGO-137" value="" style="endArrow=none;dashed=1;html=1;rounded=0;exitX=0.002;exitY=0.5;exitDx=0;exitDy=0;exitPerimeter=0;entryX=1.005;entryY=0.5;entryDx=0;entryDy=0;entryPerimeter=0;" edge="1" parent="1">
          <mxGeometry width="50" height="50" relative="1" as="geometry">
            <mxPoint x="51.996030603093345" y="673.6463721500597" as="sourcePoint" />
            <mxPoint x="648.3975170029581" y="673.6463721500597" as="targetPoint" />
          </mxGeometry>
        </mxCell>
        <mxCell id="oqbLm9f_M_ahlJ9TREGO-138" value="Forgot Password" style="text;html=1;align=center;verticalAlign=middle;resizable=0;points=[];autosize=1;strokeColor=none;fillColor=none;" vertex="1" parent="1">
          <mxGeometry x="125" y="495.99999999999994" width="110" height="30" as="geometry" />
        </mxCell>
        <mxCell id="oqbLm9f_M_ahlJ9TREGO-139" value="" style="endArrow=classic;html=1;rounded=0;" edge="1" parent="1">
          <mxGeometry width="50" height="50" relative="1" as="geometry">
            <mxPoint x="112.9197063873163" y="517.9988407053611" as="sourcePoint" />
            <mxPoint x="250" y="519" as="targetPoint" />
          </mxGeometry>
        </mxCell>
        <mxCell id="oqbLm9f_M_ahlJ9TREGO-140" value="" style="endArrow=block;dashed=1;endFill=0;endSize=12;html=1;rounded=0;" edge="1" parent="1">
          <mxGeometry width="160" relative="1" as="geometry">
            <mxPoint x="247" y="531" as="sourcePoint" />
            <mxPoint x="650" y="531" as="targetPoint" />
          </mxGeometry>
        </mxCell>
        <mxCell id="oqbLm9f_M_ahlJ9TREGO-141" value="Request Correct Page" style="text;html=1;align=center;verticalAlign=middle;resizable=0;points=[];autosize=1;strokeColor=none;fillColor=none;" vertex="1" parent="1">
          <mxGeometry x="292" y="506.99999999999994" width="140" height="30" as="geometry" />
        </mxCell>
        <mxCell id="oqbLm9f_M_ahlJ9TREGO-142" value="" style="endArrow=block;dashed=1;endFill=0;endSize=12;html=1;rounded=0;" edge="1" parent="1">
          <mxGeometry width="160" relative="1" as="geometry">
            <mxPoint x="652" y="550" as="sourcePoint" />
            <mxPoint x="249" y="550" as="targetPoint" />
          </mxGeometry>
        </mxCell>
        <mxCell id="oqbLm9f_M_ahlJ9TREGO-143" value="Return Correct Page" style="text;html=1;align=center;verticalAlign=middle;resizable=0;points=[];autosize=1;strokeColor=none;fillColor=none;" vertex="1" parent="1">
          <mxGeometry x="470" y="526" width="130" height="30" as="geometry" />
        </mxCell>
        <mxCell id="bTpTMNe7fyv-q265F9eC-88" value="[if info is&lt;br&gt;valid&lt;span style=&quot;background-color: transparent; color: light-dark(rgb(0, 0, 0), rgb(255, 255, 255));&quot;&gt;]&lt;/span&gt;" style="text;html=1;align=center;verticalAlign=middle;resizable=0;points=[];autosize=1;strokeColor=none;fillColor=none;" parent="1" vertex="1">
          <mxGeometry x="47" y="870" width="70" height="40" as="geometry" />
        </mxCell>
        <mxCell id="bTpTMNe7fyv-q265F9eC-115" value="[if project&lt;br&gt;is found&lt;span style=&quot;background-color: transparent; color: light-dark(rgb(0, 0, 0), rgb(255, 255, 255));&quot;&gt;]&lt;/span&gt;" style="text;html=1;align=center;verticalAlign=middle;resizable=0;points=[];autosize=1;strokeColor=none;fillColor=none;" parent="1" vertex="1">
          <mxGeometry x="47" y="1084" width="70" height="40" as="geometry" />
        </mxCell>
        <mxCell id="bTpTMNe7fyv-q265F9eC-117" value="[else]" style="text;html=1;align=center;verticalAlign=middle;resizable=0;points=[];autosize=1;strokeColor=none;fillColor=none;" parent="1" vertex="1">
          <mxGeometry x="56.411274509803924" y="1144" width="50" height="30" as="geometry" />
        </mxCell>
        <mxCell id="oqbLm9f_M_ahlJ9TREGO-12" value="[if user is&lt;br&gt;valid&lt;span style=&quot;background-color: transparent; color: light-dark(rgb(0, 0, 0), rgb(255, 255, 255));&quot;&gt;]&lt;/span&gt;" style="text;html=1;align=center;verticalAlign=middle;resizable=0;points=[];autosize=1;strokeColor=none;fillColor=none;" vertex="1" parent="1">
          <mxGeometry x="47" y="1668" width="70" height="40" as="geometry" />
        </mxCell>
        <mxCell id="oqbLm9f_M_ahlJ9TREGO-37" value="[if user is&lt;br&gt;found&lt;span style=&quot;background-color: transparent; color: light-dark(rgb(0, 0, 0), rgb(255, 255, 255));&quot;&gt;]&lt;/span&gt;" style="text;html=1;align=center;verticalAlign=middle;resizable=0;points=[];autosize=1;strokeColor=none;fillColor=none;" vertex="1" parent="1">
          <mxGeometry x="47" y="1910" width="70" height="40" as="geometry" />
        </mxCell>
        <mxCell id="oqbLm9f_M_ahlJ9TREGO-39" value="[else]" style="text;html=1;align=center;verticalAlign=middle;resizable=0;points=[];autosize=1;strokeColor=none;fillColor=none;" vertex="1" parent="1">
          <mxGeometry x="54.411274509803924" y="1979" width="50" height="30" as="geometry" />
        </mxCell>
        <mxCell id="oqbLm9f_M_ahlJ9TREGO-144" value="Alternative" style="shape=umlFrame;whiteSpace=wrap;html=1;pointerEvents=0;" vertex="1" parent="1">
          <mxGeometry x="54.41" y="567" width="595.59" height="163" as="geometry" />
        </mxCell>
        <mxCell id="oqbLm9f_M_ahlJ9TREGO-145" value="" style="endArrow=classic;html=1;rounded=0;" edge="1" parent="1">
          <mxGeometry width="50" height="50" relative="1" as="geometry">
            <mxPoint x="119.37" y="2044" as="sourcePoint" />
            <mxPoint x="439.37" y="2044" as="targetPoint" />
          </mxGeometry>
        </mxCell>
        <mxCell id="oqbLm9f_M_ahlJ9TREGO-146" value="User Creation" style="text;html=1;align=center;verticalAlign=middle;resizable=0;points=[];autosize=1;strokeColor=none;fillColor=none;" vertex="1" parent="1">
          <mxGeometry x="294.37" y="2021" width="100" height="30" as="geometry" />
        </mxCell>
        <mxCell id="oqbLm9f_M_ahlJ9TREGO-147" value="Alternative" style="shape=umlFrame;whiteSpace=wrap;html=1;pointerEvents=0;" vertex="1" parent="1">
          <mxGeometry x="56.41" y="2113" width="593.59" height="200" as="geometry" />
        </mxCell>
        <mxCell id="oqbLm9f_M_ahlJ9TREGO-148" value="" style="endArrow=block;dashed=1;endFill=0;endSize=12;html=1;rounded=0;" edge="1" parent="1">
          <mxGeometry width="160" relative="1" as="geometry">
            <mxPoint x="434.36" y="2051" as="sourcePoint" />
            <mxPoint x="654.36" y="2051" as="targetPoint" />
          </mxGeometry>
        </mxCell>
        <mxCell id="oqbLm9f_M_ahlJ9TREGO-149" value="Request Correct Page" style="text;html=1;align=center;verticalAlign=middle;resizable=0;points=[];autosize=1;strokeColor=none;fillColor=none;" vertex="1" parent="1">
          <mxGeometry x="470.36" y="2027" width="140" height="30" as="geometry" />
        </mxCell>
        <mxCell id="oqbLm9f_M_ahlJ9TREGO-150" value="" style="endArrow=block;dashed=1;endFill=0;endSize=12;html=1;rounded=0;" edge="1" parent="1">
          <mxGeometry width="160" relative="1" as="geometry">
            <mxPoint x="650.36" y="2077" as="sourcePoint" />
            <mxPoint x="430.36" y="2077" as="targetPoint" />
          </mxGeometry>
        </mxCell>
        <mxCell id="oqbLm9f_M_ahlJ9TREGO-151" value="Return Correct Page" style="text;html=1;align=center;verticalAlign=middle;resizable=0;points=[];autosize=1;strokeColor=none;fillColor=none;" vertex="1" parent="1">
          <mxGeometry x="475.36" y="2053" width="130" height="30" as="geometry" />
        </mxCell>
        <mxCell id="oqbLm9f_M_ahlJ9TREGO-152" value="[if input is&lt;br&gt;found&lt;span style=&quot;background-color: transparent; color: light-dark(rgb(0, 0, 0), rgb(255, 255, 255));&quot;&gt;]&lt;/span&gt;" style="text;html=1;align=center;verticalAlign=middle;resizable=0;points=[];autosize=1;strokeColor=none;fillColor=none;" vertex="1" parent="1">
          <mxGeometry x="52" y="2153" width="70" height="40" as="geometry" />
        </mxCell>
        <mxCell id="oqbLm9f_M_ahlJ9TREGO-154" value="" style="endArrow=none;dashed=1;html=1;rounded=0;exitX=0.002;exitY=0.5;exitDx=0;exitDy=0;exitPerimeter=0;entryX=1.005;entryY=0.5;entryDx=0;entryDy=0;entryPerimeter=0;" edge="1" parent="1">
          <mxGeometry width="50" height="50" relative="1" as="geometry">
            <mxPoint x="56.416053921568654" y="2212.5699999999997" as="sourcePoint" />
            <mxPoint x="652.8200122549018" y="2212.5699999999997" as="targetPoint" />
          </mxGeometry>
        </mxCell>
        <mxCell id="oqbLm9f_M_ahlJ9TREGO-155" value="Input User Information" style="text;html=1;align=center;verticalAlign=middle;resizable=0;points=[];autosize=1;strokeColor=none;fillColor=none;" vertex="1" parent="1">
          <mxGeometry x="274.37" y="2074" width="140" height="30" as="geometry" />
        </mxCell>
        <mxCell id="oqbLm9f_M_ahlJ9TREGO-156" value="" style="endArrow=block;dashed=1;endFill=0;endSize=12;html=1;rounded=0;" edge="1" parent="1">
          <mxGeometry width="160" relative="1" as="geometry">
            <mxPoint x="119.37" y="2098" as="sourcePoint" />
            <mxPoint x="430" y="2098" as="targetPoint" />
          </mxGeometry>
        </mxCell>
        <mxCell id="oqbLm9f_M_ahlJ9TREGO-158" value="" style="endArrow=block;dashed=1;endFill=0;endSize=12;html=1;rounded=0;" edge="1" parent="1">
          <mxGeometry width="160" relative="1" as="geometry">
            <mxPoint x="432" y="2144" as="sourcePoint" />
            <mxPoint x="652" y="2144" as="targetPoint" />
          </mxGeometry>
        </mxCell>
        <mxCell id="oqbLm9f_M_ahlJ9TREGO-159" value="Verify User Input" style="text;html=1;align=center;verticalAlign=middle;resizable=0;points=[];autosize=1;strokeColor=none;fillColor=none;" vertex="1" parent="1">
          <mxGeometry x="485.36" y="2123" width="110" height="30" as="geometry" />
        </mxCell>
        <mxCell id="oqbLm9f_M_ahlJ9TREGO-160" value="" style="endArrow=block;dashed=1;endFill=0;endSize=12;html=1;rounded=0;" edge="1" parent="1">
          <mxGeometry width="160" relative="1" as="geometry">
            <mxPoint x="650.36" y="2174" as="sourcePoint" />
            <mxPoint x="430.36" y="2174" as="targetPoint" />
          </mxGeometry>
        </mxCell>
        <mxCell id="oqbLm9f_M_ahlJ9TREGO-161" value="User inserted in db" style="text;html=1;align=center;verticalAlign=middle;resizable=0;points=[];autosize=1;strokeColor=none;fillColor=none;fontSize=12;" vertex="1" parent="1">
          <mxGeometry x="475.36" y="2151" width="120" height="30" as="geometry" />
        </mxCell>
        <mxCell id="oqbLm9f_M_ahlJ9TREGO-162" value="" style="endArrow=classic;html=1;rounded=0;" edge="1" parent="1">
          <mxGeometry width="50" height="50" relative="1" as="geometry">
            <mxPoint x="440" y="2198" as="sourcePoint" />
            <mxPoint x="240" y="2198" as="targetPoint" />
          </mxGeometry>
        </mxCell>
        <mxCell id="oqbLm9f_M_ahlJ9TREGO-163" value="User Inserted" style="text;html=1;align=center;verticalAlign=middle;resizable=0;points=[];autosize=1;strokeColor=none;fillColor=none;" vertex="1" parent="1">
          <mxGeometry x="289.37" y="2176" width="100" height="30" as="geometry" />
        </mxCell>
        <mxCell id="oqbLm9f_M_ahlJ9TREGO-164" value="" style="endArrow=block;dashed=1;endFill=0;endSize=12;html=1;rounded=0;" edge="1" parent="1">
          <mxGeometry width="160" relative="1" as="geometry">
            <mxPoint x="434.36" y="2238" as="sourcePoint" />
            <mxPoint x="654.36" y="2238" as="targetPoint" />
          </mxGeometry>
        </mxCell>
        <mxCell id="oqbLm9f_M_ahlJ9TREGO-165" value="Verify User Input" style="text;html=1;align=center;verticalAlign=middle;resizable=0;points=[];autosize=1;strokeColor=none;fillColor=none;" vertex="1" parent="1">
          <mxGeometry x="487.72" y="2217" width="110" height="30" as="geometry" />
        </mxCell>
        <mxCell id="oqbLm9f_M_ahlJ9TREGO-166" value="" style="endArrow=block;dashed=1;endFill=0;endSize=12;html=1;rounded=0;" edge="1" parent="1">
          <mxGeometry width="160" relative="1" as="geometry">
            <mxPoint x="650.36" y="2265" as="sourcePoint" />
            <mxPoint x="430.36" y="2265" as="targetPoint" />
          </mxGeometry>
        </mxCell>
        <mxCell id="oqbLm9f_M_ahlJ9TREGO-167" value="Invalid Input" style="text;html=1;align=center;verticalAlign=middle;resizable=0;points=[];autosize=1;strokeColor=none;fillColor=none;fontSize=12;" vertex="1" parent="1">
          <mxGeometry x="490.36" y="2237" width="90" height="30" as="geometry" />
        </mxCell>
        <mxCell id="oqbLm9f_M_ahlJ9TREGO-168" value="" style="endArrow=classic;html=1;rounded=0;" edge="1" parent="1">
          <mxGeometry width="50" height="50" relative="1" as="geometry">
            <mxPoint x="440" y="2290" as="sourcePoint" />
            <mxPoint x="240" y="2290" as="targetPoint" />
          </mxGeometry>
        </mxCell>
        <mxCell id="oqbLm9f_M_ahlJ9TREGO-169" value="Re-input User Information" style="text;html=1;align=center;verticalAlign=middle;resizable=0;points=[];autosize=1;strokeColor=none;fillColor=none;" vertex="1" parent="1">
          <mxGeometry x="261.37" y="2267" width="160" height="30" as="geometry" />
        </mxCell>
        <mxCell id="oqbLm9f_M_ahlJ9TREGO-170" value="[else]" style="text;html=1;align=center;verticalAlign=middle;resizable=0;points=[];autosize=1;strokeColor=none;fillColor=none;" vertex="1" parent="1">
          <mxGeometry x="62.00127450980392" y="2247" width="50" height="30" as="geometry" />
        </mxCell>
        <mxCell id="oqbLm9f_M_ahlJ9TREGO-177" value="" style="endArrow=classic;html=1;rounded=0;" edge="1" parent="1">
          <mxGeometry width="50" height="50" relative="1" as="geometry">
            <mxPoint x="112.68" y="1318" as="sourcePoint" />
            <mxPoint x="432.68" y="1318" as="targetPoint" />
          </mxGeometry>
        </mxCell>
        <mxCell id="oqbLm9f_M_ahlJ9TREGO-178" value="Insert new Project Information" style="text;html=1;align=center;verticalAlign=middle;resizable=0;points=[];autosize=1;strokeColor=none;fillColor=none;" vertex="1" parent="1">
          <mxGeometry x="250.37" y="1291" width="180" height="30" as="geometry" />
        </mxCell>
        <mxCell id="oqbLm9f_M_ahlJ9TREGO-180" value="Alternative" style="shape=umlFrame;whiteSpace=wrap;html=1;pointerEvents=0;" vertex="1" parent="1">
          <mxGeometry x="55.68" y="1372" width="594.32" height="178" as="geometry" />
        </mxCell>
        <mxCell id="oqbLm9f_M_ahlJ9TREGO-181" value="[if input&lt;br&gt;is valid&lt;span style=&quot;background-color: transparent; color: light-dark(rgb(0, 0, 0), rgb(255, 255, 255));&quot;&gt;]&lt;/span&gt;" style="text;html=1;align=center;verticalAlign=middle;resizable=0;points=[];autosize=1;strokeColor=none;fillColor=none;" vertex="1" parent="1">
          <mxGeometry x="57" y="1412" width="60" height="40" as="geometry" />
        </mxCell>
        <mxCell id="oqbLm9f_M_ahlJ9TREGO-188" value="" style="endArrow=block;dashed=1;endFill=0;endSize=12;html=1;rounded=0;" edge="1" parent="1">
          <mxGeometry width="160" relative="1" as="geometry">
            <mxPoint x="652.72" y="1404" as="sourcePoint" />
            <mxPoint x="432.72" y="1404" as="targetPoint" />
          </mxGeometry>
        </mxCell>
      </root>
    </mxGraphModel>
  </diagram>
</mxfile>
